<?xml version="1.0" encoding="utf-8"?>
<!-- Generator: Adobe Illustrator 18.1.1, SVG Export Plug-In . SVG Version: 6.00 Build 0)  -->
<svg version="1.1" id="Layer_1" xmlns="http://www.w3.org/2000/svg" xmlns:xlink="http://www.w3.org/1999/xlink" x="0px" y="0px"
	 viewBox="0 0 1512 1512" enable-background="new 0 0 1512 1512" xml:space="preserve">
<g>
	<path fill="#FFC846" d="M1504.3,648C1451.9,281.6,1136.9,0,756,0H0v576v72H1504.3z M360,576V360h396c153.9,0,287.3,87.8,352.8,216
		H360z M72,72h684c315.5,0,581,213.6,660,504h-227.9C1117.6,406.9,950.7,288,756,288H288v288H72V72z"/>
	<path fill="#FFC846" d="M864,864v347.5c171.7-40.6,306.9-175.7,347.5-347.5H864z M936,1108.8V936h172.8
		C1070.9,1010.2,1010.2,1070.9,936,1108.8z"/>
	<path fill="#FFC846" d="M864,1431.5v72.8c331.1-47.4,593-309.2,640.3-640.3h-72.8C1385.3,1155.3,1155.3,1385.3,864,1431.5z"/>
	<path fill="#FFC846" d="M288,864v360h288v216H72V864H0v648h648V864H288z M576,936v216H360V936H576z"/>
</g>
</svg>
